<?xml version="1.0" encoding="UTF-8" standalone="no"?>
<!DOCTYPE svg PUBLIC "-//W3C//DTD SVG 1.1//EN" "http://www.w3.org/Graphics/SVG/1.1/DTD/svg11.dtd">
<svg width="100%" height="100%" viewBox="0 0 2544 2544" version="1.1" xmlns="http://www.w3.org/2000/svg" xmlns:xlink="http://www.w3.org/1999/xlink" xml:space="preserve" xmlns:serif="http://www.serif.com/" style="fill-rule:evenodd;clip-rule:evenodd;stroke-linejoin:round;stroke-miterlimit:2;">
    <path d="M2544,254.4C2544,113.993 2430.01,0 2289.6,0L254.4,0C113.993,0 0,113.993 0,254.4L0,2289.6C0,2430.01 113.993,2544 254.4,2544L2289.6,2544C2430.01,2544 2544,2430.01 2544,2289.6L2544,254.4Z" style="fill:rgb(30,96,145);"/>
    <g transform="matrix(3.01802,0,0,1.79221,-519.356,118.775)">
        <path d="M387.043,570.682L419.015,570.682L419.015,462.75L481.17,462.75L481.17,412.788L419.015,412.788L419.015,330.539L505.039,330.539L505.039,280.985L387.043,280.985L387.043,570.682Z" style="fill:white;fill-rule:nonzero;"/>
        <path d="M532.436,570.682L564.407,570.682L564.407,462.75L626.563,462.75L626.563,412.788L564.407,412.788L564.407,330.539L650.431,330.539L650.431,280.985L532.436,280.985L532.436,570.682Z" style="fill:white;fill-rule:nonzero;"/>
        <path d="M743.13,574.763C765.91,574.763 785.044,566.198 792.189,562.527L792.189,420.746L731.981,420.746L731.981,470.299L760.46,470.299L760.46,521.536C756.098,522.556 751.25,523.373 746.039,523.373C713.923,523.373 697.684,490.1 697.684,423.397C697.684,362.785 714.529,328.09 743.615,328.09C756.461,328.09 768.211,337.682 775.719,353.805L795.824,314.835C785.65,290.772 767.242,276.904 742.161,276.904C692.598,276.904 664.016,331.152 664.016,425.436C664.016,525.005 690.418,574.763 743.13,574.763Z" style="fill:white;fill-rule:nonzero;"/>
        <path d="M384.62,1005.95L452.586,1005.95C487.116,1005.95 506.735,976.989 506.735,926.391C506.735,881.694 489.78,856.214 459.979,856.214L454.404,856.214L454.404,849.456C480.086,847.621 494.619,825.609 494.619,788.051C494.619,742.148 474.031,716.249 437.802,716.249L384.62,716.249L384.62,1005.95ZM416.591,956.393L416.591,877.816L443.862,877.816C462.524,877.816 473.189,892.103 473.189,916.798C473.189,941.902 463.009,956.393 445.557,956.393L416.591,956.393ZM416.591,828.058L416.591,765.803L436.59,765.803C452.831,765.803 461.072,775.805 461.072,795.4C461.072,817.036 453.315,828.058 438.286,828.058L416.591,828.058Z" style="fill:white;fill-rule:nonzero;"/>
        <path d="M579.436,1010.03C620.03,1010.03 642.798,981.07 642.798,929.661C642.798,897.216 629.113,868.239 604.889,847.017L581.618,826.816C571.316,817.633 565.498,806.002 565.498,793.146C565.498,773.965 573.74,763.355 588.042,763.355C598.465,763.355 610.099,773.352 621.241,791.309L643.283,748.672C628.507,725.016 609.009,712.169 587.92,712.169C551.57,712.169 530.861,741.127 530.861,791.718C530.861,827.632 544.909,858.241 569.255,878.238L593.98,898.44C602.95,905.582 608.161,916.601 608.161,928.641C608.161,948.026 598.586,958.637 581.375,958.637C566.467,958.637 548.3,951.699 530.619,939.048L526.257,994.121C540.792,1004.32 559.927,1010.03 579.436,1010.03Z" style="fill:white;fill-rule:nonzero;"/>
        <path d="M714.783,1005.95L746.754,1005.95L746.754,913.121L802.488,716.249L766.745,716.249L731.858,850.898L729.678,850.898L694.791,716.249L659.049,716.249L714.783,913.121L714.783,1005.95Z" style="fill:white;fill-rule:nonzero;"/>
    </g>
</svg>
