<?xml version="1.0" encoding="UTF-8" standalone="no"?>
<!DOCTYPE svg PUBLIC "-//W3C//DTD SVG 1.1//EN" "http://www.w3.org/Graphics/SVG/1.1/DTD/svg11.dtd">
<svg width="100%" height="100%" viewBox="0 0 3000 3000" version="1.1" xmlns="http://www.w3.org/2000/svg" xmlns:xlink="http://www.w3.org/1999/xlink" xml:space="preserve" xmlns:serif="http://www.serif.com/" style="fill-rule:evenodd;clip-rule:evenodd;stroke-linejoin:round;stroke-miterlimit:2;">
    <path d="M3000,300C3000,134.425 2865.58,0 2700,0L300,0C134.425,0 0,134.425 0,300L0,2700C0,2865.58 134.425,3000 300,3000L2700,3000C2865.58,3000 3000,2865.58 3000,2700L3000,300Z" style="fill:rgb(21,0,97);"/>
    <g transform="matrix(0.803289,0,0,0.803289,295.067,295.067)">
        <g transform="matrix(3.33859,0,0,3.33859,-2228.78,-3901.99)">
            <path d="M787.39,1569.79L838.928,1569.79L838.928,1466.47L939.124,1466.47L939.124,1418.64L838.928,1418.64L838.928,1339.91L977.6,1339.91L977.6,1292.47L787.39,1292.47L787.39,1569.79Z" style="fill:white;fill-rule:nonzero;"/>
            <path d="M1021.76,1569.79L1073.3,1569.79L1073.3,1466.47L1173.5,1466.47L1173.5,1418.64L1073.3,1418.64L1073.3,1339.91L1211.98,1339.91L1211.98,1292.47L1021.76,1292.47L1021.76,1569.79Z" style="fill:white;fill-rule:nonzero;"/>
            <path d="M1361.41,1573.69C1398.13,1573.69 1428.97,1565.5 1440.49,1561.98L1440.49,1426.26L1343.43,1426.26L1343.43,1473.69L1389.34,1473.69L1389.34,1522.74C1382.31,1523.72 1374.5,1524.5 1366.1,1524.5C1314.33,1524.5 1288.15,1492.65 1288.15,1428.8C1288.15,1370.77 1315.3,1337.56 1362.19,1337.56C1382.9,1337.56 1401.84,1346.74 1413.94,1362.18L1446.35,1324.87C1429.95,1301.84 1400.28,1288.56 1359.84,1288.56C1279.95,1288.56 1233.88,1340.49 1233.88,1430.75C1233.88,1526.06 1276.43,1573.69 1361.41,1573.69Z" style="fill:white;fill-rule:nonzero;"/>
        </g>
        <g transform="matrix(3.26599,0,0,3.26599,-2158.85,-4009.37)">
            <path d="M783.484,2019.79L893.046,2019.79C948.708,2019.79 980.335,1992.07 980.335,1943.63C980.335,1900.85 953.003,1876.45 904.963,1876.45L895.976,1876.45L895.976,1869.98C937.376,1868.23 960.803,1847.16 960.803,1811.2C960.803,1767.26 927.615,1742.47 869.213,1742.47L783.484,1742.47L783.484,2019.79ZM835.022,1972.35L835.022,1897.13L878.982,1897.13C909.066,1897.13 926.257,1910.81 926.257,1934.45C926.257,1958.48 909.847,1972.35 881.715,1972.35L835.022,1972.35ZM835.022,1849.5L835.022,1789.91L867.259,1789.91C893.44,1789.91 906.726,1799.48 906.726,1818.24C906.726,1838.95 894.222,1849.5 869.995,1849.5L835.022,1849.5Z" style="fill:white;fill-rule:nonzero;"/>
            <path d="M1097.53,2023.69C1162.97,2023.69 1199.67,1995.98 1199.67,1946.76C1199.67,1915.7 1177.61,1887.97 1138.56,1867.65L1101.05,1848.31C1084.44,1839.52 1075.06,1828.39 1075.06,1816.08C1075.06,1797.72 1088.35,1787.56 1111.4,1787.56C1128.2,1787.56 1146.96,1797.13 1164.92,1814.32L1200.45,1773.51C1176.63,1750.86 1145.2,1738.56 1111.21,1738.56C1052.61,1738.56 1019.23,1766.28 1019.23,1814.71C1019.23,1849.09 1041.87,1878.39 1081.12,1897.54L1120.98,1916.88C1135.43,1923.71 1143.84,1934.26 1143.84,1945.79C1143.84,1964.34 1128.4,1974.5 1100.66,1974.5C1076.62,1974.5 1047.34,1967.86 1018.84,1955.75L1011.8,2008.47C1035.24,2018.23 1066.08,2023.69 1097.53,2023.69Z" style="fill:white;fill-rule:nonzero;"/>
            <path d="M1315.71,2019.79L1367.25,2019.79L1367.25,1930.93L1457.09,1742.47L1399.48,1742.47L1343.24,1871.37L1339.72,1871.37L1283.48,1742.47L1225.87,1742.47L1315.71,1930.93L1315.71,2019.79Z" style="fill:white;fill-rule:nonzero;"/>
        </g>
    </g>
</svg>
